<?xml version="1.0" encoding="UTF-8" standalone="no"?>
<!DOCTYPE svg PUBLIC "-//W3C//DTD SVG 1.1//EN" "http://www.w3.org/Graphics/SVG/1.1/DTD/svg11.dtd">
<!-- Generated by graphviz version 2.40.1 (20161225.0304)
 -->
<!-- Title: %0 Pages: 1 -->
<svg xmlns="http://www.w3.org/2000/svg" xmlns:xlink="http://www.w3.org/1999/xlink" width="509pt" height="548pt" viewBox="0.00 0.00 509.42 548.00">
  <g id="graph0" class="graph" transform="scale(1 1) rotate(0) translate(4 544)">
    <title>%0</title>
    <polygon fill="#ffffff" stroke="transparent" points="-4,4 -4,-544 505.4164,-544 505.4164,4 -4,4"/>
    <!-- rec1 -->
    <g id="node1" class="node">
      <title>rec1</title>
      <polygon fill="#70acc0" stroke="#ffffff" points="470.2588,-540 31.1576,-540 31.1576,-504 470.2588,-504 470.2588,-540"/>
      <text text-anchor="middle" x="250.7082" y="-517.8" font-family="Helvetica,sans-Serif" font-size="14.00" fill="#000000">Step 1. Searching for Charité publications in bibliographic databases</text>
    </g>
    <!-- rec2 -->
    <g id="node2" class="node">
      <title>rec2</title>
      <polygon fill="#70acc0" stroke="#ffffff" points="419.4817,-468 81.9347,-468 81.9347,-432 419.4817,-432 419.4817,-468"/>
      <text text-anchor="middle" x="250.7082" y="-445.8" font-family="Helvetica,sans-Serif" font-size="14.00" fill="#000000">Step 2. Text mining of article full texts with ODDPub</text>
    </g>
    <!-- rec1&#45;&gt;rec2 -->
    <g id="edge1" class="edge">
      <title>rec1-&gt;rec2</title>
      <path fill="none" stroke="#000000" d="M250.7082,-503.8314C250.7082,-496.131 250.7082,-486.9743 250.7082,-478.4166"/>
      <polygon fill="#000000" stroke="#000000" points="254.2083,-478.4132 250.7082,-468.4133 247.2083,-478.4133 254.2083,-478.4132"/>
    </g>
    <!-- rec3 -->
    <g id="node3" class="node">
      <title>rec3</title>
      <polygon fill="#70acc0" stroke="#ffffff" points="414.6912,-396 86.7252,-396 86.7252,-360 414.6912,-360 414.6912,-396"/>
      <text text-anchor="middle" x="250.7082" y="-373.8" font-family="Helvetica,sans-Serif" font-size="14.00" fill="#000000">Step 3. Screening of data statements with Numbat</text>
    </g>
    <!-- rec2&#45;&gt;rec3 -->
    <g id="edge2" class="edge">
      <title>rec2-&gt;rec3</title>
      <path fill="none" stroke="#000000" d="M250.7082,-431.8314C250.7082,-424.131 250.7082,-414.9743 250.7082,-406.4166"/>
      <polygon fill="#000000" stroke="#000000" points="254.2083,-406.4132 250.7082,-396.4133 247.2083,-406.4133 254.2083,-406.4132"/>
    </g>
    <!-- rec4 -->
    <g id="node4" class="node">
      <title>rec4</title>
      <polygon fill="#70acc0" stroke="#ffffff" points="394.2134,-324 107.203,-324 107.203,-288 394.2134,-288 394.2134,-324"/>
      <text text-anchor="middle" x="250.7082" y="-301.8" font-family="Helvetica,sans-Serif" font-size="14.00" fill="#000000">Step 4. Manually verifying research data ids</text>
    </g>
    <!-- rec3&#45;&gt;rec4 -->
    <g id="edge3" class="edge">
      <title>rec3-&gt;rec4</title>
      <path fill="none" stroke="#000000" d="M250.7082,-359.8314C250.7082,-352.131 250.7082,-342.9743 250.7082,-334.4166"/>
      <polygon fill="#000000" stroke="#000000" points="254.2083,-334.4132 250.7082,-324.4133 247.2083,-334.4133 254.2083,-334.4132"/>
    </g>
    <!-- rec5 -->
    <g id="node5" class="node">
      <title>rec5</title>
      <polygon fill="#70acc0" stroke="#ffffff" points="501.6248,-252 -.2084,-252 -.2084,-216 501.6248,-216 501.6248,-252"/>
      <text text-anchor="middle" x="250.7082" y="-229.8" font-family="Helvetica,sans-Serif" font-size="14.00" fill="#000000">Step 5. Querying servers of FAIR assessment tools like F-UJI or FAIR Enough</text>
    </g>
    <!-- rec4&#45;&gt;rec5 -->
    <g id="edge4" class="edge">
      <title>rec4-&gt;rec5</title>
      <path fill="none" stroke="#000000" d="M250.7082,-287.8314C250.7082,-280.131 250.7082,-270.9743 250.7082,-262.4166"/>
      <polygon fill="#000000" stroke="#000000" points="254.2083,-262.4132 250.7082,-252.4133 247.2083,-262.4133 254.2083,-262.4132"/>
    </g>
    <!-- rec6 -->
    <g id="node6" class="node">
      <title>rec6</title>
      <polygon fill="#70acc0" stroke="#ffffff" points="472.5636,-180 28.8528,-180 28.8528,-144 472.5636,-144 472.5636,-180"/>
      <text text-anchor="middle" x="250.7082" y="-157.8" font-family="Helvetica,sans-Serif" font-size="14.00" fill="#000000">Step 6. Extracting FAIR scores and other test results from JSON files</text>
    </g>
    <!-- rec5&#45;&gt;rec6 -->
    <g id="edge5" class="edge">
      <title>rec5-&gt;rec6</title>
      <path fill="none" stroke="#000000" d="M250.7082,-215.8314C250.7082,-208.131 250.7082,-198.9743 250.7082,-190.4166"/>
      <polygon fill="#000000" stroke="#000000" points="254.2083,-190.4132 250.7082,-180.4133 247.2083,-190.4133 254.2083,-190.4132"/>
    </g>
    <!-- rec7 -->
    <g id="node7" class="node">
      <title>rec7</title>
      <polygon fill="#70acc0" stroke="#ffffff" points="467.1786,-108 34.2378,-108 34.2378,-72 467.1786,-72 467.1786,-108"/>
      <text text-anchor="middle" x="250.7082" y="-85.8" font-family="Helvetica,sans-Serif" font-size="14.00" fill="#000000">Step 7. Enriching results with data from Unpaywall, FoR, re3data ...</text>
    </g>
    <!-- rec6&#45;&gt;rec7 -->
    <g id="edge6" class="edge">
      <title>rec6-&gt;rec7</title>
      <path fill="none" stroke="#000000" d="M250.7082,-143.8314C250.7082,-136.131 250.7082,-126.9743 250.7082,-118.4166"/>
      <polygon fill="#000000" stroke="#000000" points="254.2083,-118.4132 250.7082,-108.4133 247.2083,-118.4133 254.2083,-118.4132"/>
    </g>
    <!-- rec8 -->
    <g id="node8" class="node">
      <title>rec8</title>
      <polygon fill="#70acc0" stroke="#ffffff" points="335.746,-36 165.6704,-36 165.6704,0 335.746,0 335.746,-36"/>
      <text text-anchor="middle" x="250.7082" y="-13.8" font-family="Helvetica,sans-Serif" font-size="14.00" fill="#000000">Step 8. Reporting results</text>
    </g>
    <!-- rec7&#45;&gt;rec8 -->
    <g id="edge7" class="edge">
      <title>rec7-&gt;rec8</title>
      <path fill="none" stroke="#000000" d="M250.7082,-71.8314C250.7082,-64.131 250.7082,-54.9743 250.7082,-46.4166"/>
      <polygon fill="#000000" stroke="#000000" points="254.2083,-46.4132 250.7082,-36.4133 247.2083,-46.4133 254.2083,-46.4132"/>
    </g>
  </g>
</svg>
